<?xml version="1.0" encoding="UTF-8"?>
<!-- Generator: Adobe Illustrator 22.0.1, SVG Export Plug-In . SVG Version: 6.00 Build 0)  -->
<svg xmlns="http://www.w3.org/2000/svg" xmlns:xlink="http://www.w3.org/1999/xlink" xmlns:dc="http://purl.org/dc/elements/1.1/" xmlns:cc="http://creativecommons.org/ns#" xmlns:rdf="http://www.w3.org/1999/02/22-rdf-syntax-ns#" version="1.1" id="designs" x="0px" y="0px" width="32px" height="32px" viewBox="0 0 32 32" style="enable-background:new 0 0 32 32;" xml:space="preserve">
<title property="dc:title">to go</title><desc property="dc:description">An icon for "go" from the Science and Fiction series on to [icon]. Downloaded from http://www.toicon.com/icons/science-and-fiction_go by 181.59.57.126 on 2018-02-07. Licensed CC-BY, see http://toicon.com/license/ for details.</desc>
<path class="scienceandfiction_een" d="M23,10l-5.5-3H9L6.455,8.455L2,4h0l0,0H1v8h1v3l4,2c0,1.105,0.895,2,2,2h3  c1.105,0,2-0.895,2-2h9c0,1.105,0.895,2,2,2h3c1.105,0,2-0.895,2-2l2-2v-3L23,10z M17.245,8l3.667,2H14V8H17.245z M11,8v2h-1V8H11z   M9,8.152V10H5.766L9,8.152z M2,5.414l3.555,3.555L2,11V5.414z M11,18H8c-0.551,0-1-0.449-1-1s0.449-1,1-1h3c0.551,0,1,0.449,1,1  S11.551,18,11,18z M27,18h-3c-0.551,0-1-0.449-1-1c0-0.522,0.489-0.956,1-1c0.077-0.007,2.923-0.007,3,0c0.511,0.044,1,0.478,1,1  C28,17.551,27.551,18,27,18z M30,14v0.586l-1.323,1.33C28.321,15.366,27.704,15,27,15h-3c-0.738,0-1.376,0.405-1.723,1h-9.555  c-0.346-0.595-0.984-1-1.723-1H8c-0.745,0-1.388,0.412-1.732,1.017L3,14.382V14h24v-1H3v-1.42L4.016,11H12V8h1v3h9.877L30,12.781V13  h-2v1H30z" style="fill: #2B4099;"/>
<path class="scienceandfiction_twee" d="M12,20v4h-1v-4H12z M11,25v1h1v-1H11z M10,27v1h1v-1H10z M12,27v1h1v-1H12z M13,26v1h1v-1  H13z M8,27v1h1v-1H8z M6,27v1h1v-1H6z M9,28v1h1v-1H9z M5,26v1h1v-1H5z M26,27v1h1v-1H26z M28,27v1h1v-1H28z M29,26v1h1v-1H29z   M24,27v1h1v-1H24z M22,27v1h1v-1H22z M25,28v1h1v-1H25z M21,26v1h1v-1H21z M9,22v4h1v-4H9z M9,20v1h1v-1H9z M7,20v4h1v-4H7z M7,25  v1h1v-1H7z M27,20v4h1v-4H27z M27,25v1h1v-1H27z M25,22v4h1v-4H25z M25,20v1h1v-1H25z M23,20v4h1v-4H23z M23,25v1h1v-1H23z" style="fill: #CC2954;"/>
<metadata><work rdf:about=""><format>image/svg+xml</format><type rdf:resource="http://purl.org/dc/dcmitype/StillImage"/><license rdf:resource="http://creativecommons.org/licenses/by/4.0/"/><attributionname>Kamila Piątkowska</attributionname><attributionurl>http://www.toicon.com/icons/science-and-fiction_go</attributionurl></work></metadata></svg>
