<?xml version="1.0" ?><svg id="outline" viewBox="0 0 340 340" xmlns="http://www.w3.org/2000/svg"><title/><path d="M274.8,94.021a4,4,0,0,0,3.92-4.078l-.027-1.322a4,4,0,0,0-8,.16l.027,1.321a4,4,0,0,0,4,3.92Z"/><path d="M280.376,12.949a22.28,22.28,0,0,0-1.645-2.264,17.506,17.506,0,0,0-10.482-6.043A75.73,75.73,0,0,0,215.1,15.459a77.306,77.306,0,0,0-23.469,23.773c-3.666,5.728-11.3,16.642-21.252,25.385-1.057.928-2.132,1.821-3.2,2.659a4.145,4.145,0,0,0-1,5.55,4,4,0,0,0,5.753.885c1.243-.969,2.5-2.007,3.722-3.085,10.152-8.921,17.953-19.651,22.709-27.081A69.378,69.378,0,0,1,219.4,22.2a67.621,67.621,0,0,1,47.46-9.68,9.506,9.506,0,0,1,5.7,3.259,14.222,14.222,0,0,1,1.055,1.45,9.492,9.492,0,0,1,.894,8.317,9.774,9.774,0,0,1-6.13,6.05c-33.021,11.044-48.446,31.51-55.572,46.733-7.749,16.556-7.614,30.433-7.6,31.016a4,4,0,0,0,3.338,3.879l1.412.237c-4.5,9.172-12.307,17.428-12.4,17.522a4.039,4.039,0,0,0,.437,5.953,3.736,3.736,0,0,0,1.791.752q.9.153,1.681.348a106.157,106.157,0,0,0-11.823,9.154,46.806,46.806,0,0,0-1.308-18.138,4.127,4.127,0,0,0-4.686-2.986,4,4,0,0,0-3.044,5.058c2.508,8.459,1.064,17.318-.306,22.612a61.185,61.185,0,0,0-1.912,12.055c-.191,3.589-.382,7.172-.382,7.172A4.015,4.015,0,0,0,181,176.981c10.85,2.91,20.672,8.487,25.564,11.555a24.029,24.029,0,0,0,11.959,3.658l4.893.16v7.793c-10.11.951-38.012,4.884-58.773,20.25a4.09,4.09,0,0,0-1.146,5.329,4,4,0,0,0,5.822,1.164c23.232-17.252,57.861-19.017,58.272-19.036,23.285-.951,40.28,4.681,48.39,8.151.065.029.128.059.195.084a36.073,36.073,0,0,1,10.106,6.408c6.731,6.165,8.5,12.206,5.4,18.467a11.645,11.645,0,0,1-9.224,6.3c-12.3,1.42-34.886,5.48-47.955,16.709a57.417,57.417,0,0,1-33.581,13.462,4,4,0,0,0-4,4v2.027c-9.458-2.071-13.562-8.164-13.791-8.516a4,4,0,0,0-6.766,4.269c.3.476,7.5,11.674,24.281,12.833.092.007.184.009.276.009a4,4,0,0,0,4-4v-2.895A65.485,65.485,0,0,0,218.5,282.08l-2.96,47.156a4,4,0,0,0,3.741,4.243c.086,0,.171.008.255.008a4,4,0,0,0,3.989-3.75l3.206-51.088a63.093,63.093,0,0,0,12.992-8.607c9.231-7.931,24.94-11.85,35.789-13.7l3.562,73.34a4,4,0,0,0,3.993,3.806c.065,0,.13,0,.2,0a4,4,0,0,0,3.8-4.189l-3.6-74.093a19.607,19.607,0,0,0,15.395-10.69c2.441-4.938,4.845-14.279-3.85-24.481,15.115-5.523,18.676-18.091,18.278-24.927a27.705,27.705,0,0,0-2.51-13.551,4.1,4.1,0,0,0-5.121-2.076,4,4,0,0,0-2.114,5.493,19.91,19.91,0,0,1,1.744,9.954,4.542,4.542,0,0,0,0,.481c.089,1.506.328,14.455-17.162,18.307a44.936,44.936,0,0,0-6.581-3.945c-.151-5.08-.3-10.447-.454-16.027.739.243,1.473.506,2.2.8a17.229,17.229,0,0,0,6.374,1.351h.086c5.791,0,9.9-3.015,11.274-8.282a12.394,12.394,0,0,0-.223-7.243,12.233,12.233,0,0,0-2.978-4.71c.007-.028.019-.052.027-.08a12.406,12.406,0,0,0-.222-7.246,12.938,12.938,0,0,0-10.085-8.4,42.752,42.752,0,0,0-39.065,13.107,4.124,4.124,0,0,0-1.033,3.9,4,4,0,0,0,4.492,2.884,58.551,58.551,0,0,1,6.29-.531,46.581,46.581,0,0,0-6.585,5.789,4.111,4.111,0,0,0-1.023,3.9,4,4,0,0,0,4.491,2.88,67.723,67.723,0,0,1,17.93.042c.135,5.03.27,9.894.405,14.545a122.437,122.437,0,0,0-42.027-6.685V188.546c.073-2.332,1.972-63.012,1.806-106.4a4,4,0,0,0-4-3.985h-.016a4,4,0,0,0-3.984,4.015c.143,37.42-1.255,87.777-1.682,102.181l-4.755-.156a16.007,16.007,0,0,1-7.971-2.44,110.9,110.9,0,0,0-24.7-11.619l.042-1.139a19.122,19.122,0,0,1,5.9-13.143A94.516,94.516,0,0,1,211.7,141.211a4.152,4.152,0,0,0,1.691-1.6,4.013,4.013,0,0,0-.785-4.937,18.566,18.566,0,0,0-5.065-3.027c3.782-4.692,9.133-12.2,11.8-19.9a4.138,4.138,0,0,0,.2-2.07,4.01,4.01,0,0,0-3.286-3.27l-2.866-.481c1.055-11.438,8.206-49.653,56.359-66.335.161,8.733.383,20.587.653,34.3a4,4,0,0,0,4,3.921c.211,0,.364,0,.91-.452a9.6,9.6,0,0,0,3.031-6.679l-.024-1.232A80.111,80.111,0,0,1,317,50.405v5.4a13.958,13.958,0,0,1-5.55,11.083,105.482,105.482,0,0,0-32.354,41.336c-.017-.8-.033-1.6-.05-2.4a4,4,0,1,0-8,.167c.3,14.26.621,29.269.961,44.058a4,4,0,0,0,4,3.908h.094A4,4,0,0,0,280,149.872c-.136-5.907-.269-11.848-.4-17.763,7.36-32.671,26.106-50.874,36.659-58.829A22.006,22.006,0,0,0,325,55.808V45.84a4.212,4.212,0,0,0-.458-2,4.008,4.008,0,0,0-4.071-2.1,87.449,87.449,0,0,0-42.354,17.448c-.187-9.761-.34-18.024-.451-24.112a17.885,17.885,0,0,0,4.387-6.854A17.44,17.44,0,0,0,280.376,12.949Zm-16.7,158.336a35.088,35.088,0,0,1,22.452-3.487,4.948,4.948,0,0,1,3.925,3.1,4.25,4.25,0,0,1,.2.98,44.1,44.1,0,0,0-16.706.479A67.817,67.817,0,0,0,263.676,171.285Zm3.18,12.032a35.073,35.073,0,0,1,22.445-3.484,4.947,4.947,0,0,1,3.925,3.1,4.476,4.476,0,0,1,.056,2.646c-.225.863-.6,2.3-3.531,2.3H289.7a9.45,9.45,0,0,1-3.44-.778,49.844,49.844,0,0,0-8.429-2.488c-.093-.021-.184-.042-.28-.056A67,67,0,0,0,266.856,183.317Z"/><path d="M173.3,291.889a4,4,0,0,0,2.34-7.651c-5.609-1.716-10.125-5.175-12.39-9.491a4,4,0,1,0-7.083,3.718C159.415,284.659,165.66,289.552,173.3,291.889Z"/><path d="M138.036,293.685a4,4,0,0,0,3.03,1.678c.078,0,.155.007.232.007a4,4,0,0,0,2.973-1.324,27.063,27.063,0,0,0,3.847-5.976,29.315,29.315,0,0,0,4.5,2.875,4,4,0,0,0,3.657-7.115,21.534,21.534,0,0,1-6.76-5.464,4,4,0,0,0-7.184,1.753,16.322,16.322,0,0,1-1.451,4.544,60.613,60.613,0,0,0-17.568-12.086A82,82,0,0,1,100.724,257.6a4,4,0,0,0-5.524,5.786,89.938,89.938,0,0,0,24.826,16.481l.093.041C120.236,279.96,131.876,285.007,138.036,293.685Z"/><path d="M25.319,219.608c-.77,2.243-2.765,6.276-7.421,7.762a4.1,4.1,0,0,0-2.79,4.775,3.995,3.995,0,0,0,5.076,2.892,18.562,18.562,0,0,0,4.682-2.192c-1.311,33.424,1.818,71.765,19.834,90.131.807.866,8.03,8.324,17.213,8.323.249,0,.5-.006.753-.017a16.677,16.677,0,0,0,4.23-.74A52.589,52.589,0,0,0,91.6,336.393a66.448,66.448,0,0,0,15.434-1.861,27.581,27.581,0,0,0,11.944-6.124c11.047-9.909,7.265-23.17,7.1-23.73a4.028,4.028,0,0,0-4.827-2.751,3.828,3.828,0,0,0-1.71.943c-.062.056-.124.107-.186.163a29.921,29.921,0,0,0-4.377-13.083,4,4,0,0,0-3.334-1.8h-.008A4.071,4.071,0,0,0,108.262,290c-4.223,6.321-11.084,9.746-20.395,10.182a4.091,4.091,0,0,0-3.93,3.757,4,4,0,0,0,4.17,4.24c9.236-.407,16.89-3.365,22.5-8.633.858,2.818,1.3,6.358-.186,9.518-9.979,4.784-20.784,4.432-29.568,2.642a24.139,24.139,0,0,0-5.5-16.393A9.371,9.371,0,0,1,73.3,289.4a128.706,128.706,0,0,1,1.478-17.555,9.848,9.848,0,0,0,3.257-2.069c2.949-2.78,4.536-7.409,4.738-13.8a9.637,9.637,0,0,0,1.189-.095,11.375,11.375,0,0,0,7.607-4.962c.018-.025.028-.053.046-.077a4.094,4.094,0,0,0,.316-.539c.017-.035.04-.068.056-.1l.006-.012c.273-.611,6.53-15.122-3.679-33.264a4.128,4.128,0,0,0-5.23-1.853,4,4,0,0,0-1.83,5.62c7.546,13.282,4.343,23.787,3.567,25.89-.684.865-2,2.156-3.733.942a3.88,3.88,0,0,0-4.378-.429,4.093,4.093,0,0,0-2.052,3.951c.655,8.844-1.141,11.857-1.945,12.742a1.861,1.861,0,0,1-1,.642,3.324,3.324,0,0,0-2.63.445,3.478,3.478,0,0,0-1.622,2.363A132.535,132.535,0,0,0,65.3,289.263a17.385,17.385,0,0,0,3.755,10.99c4.147,5.282,4.219,10.189,3.478,13.49,0,.013-.011.025-.014.038-.008.03-.007.059-.014.089a13.519,13.519,0,0,1-1.609,4.023c-2.663,3.481-5.464,5.247-8.562,5.4-6.1.29-11.736-5.713-11.783-5.764s-.072-.077-.109-.115C31.4,298.053,31.508,250.009,33.5,221.439a4.364,4.364,0,0,0-4.967-4.7l-.093.018A4.289,4.289,0,0,0,25.319,219.608ZM77.348,322.631c.034-.045.068-.092.1-.138a17.256,17.256,0,0,0,1.62-3c9.322,1.893,22.988,2.735,35.758-3.719a4.068,4.068,0,0,0,.585-.3c1.068-.56,2.13-1.168,3.181-1.835a15.215,15.215,0,0,1-4.953,8.806,19.575,19.575,0,0,1-8.482,4.3c-5.311,1.283-17.845,3.375-30.2-1.343A28.724,28.724,0,0,0,77.348,322.631Z"/><path d="M45.33,152.911c-5.537,5.457-15.038,18.208-17.172,42.743v0c-.006.063-.033.29-.1.632h0l-.109.635c-.728,4.333-1.879,6.954-5.607,7.529a4,4,0,1,0,1.22,7.906c10.169-1.569,11.755-11.008,12.276-14.11l.088-.511v0c.14-.762.187-1.265.2-1.368h0c1.919-22.1,10.15-33.187,14.886-37.826.068-.067.128-.139.2-.206l0,0c.045-.05.093-.095.138-.146.278-.285.558-.569.818-.866a31.428,31.428,0,0,1,13.1-7.682,4,4,0,0,0-1.892-7.773,34.108,34.108,0,0,0-5.854,2.163,20.3,20.3,0,0,0-1.671-9.067l-.1-.218c-.033-.073-.08-.133-.117-.2-.025-.049-.039-.1-.067-.149a50.242,50.242,0,0,1-4.837-11.007c-.027-.1-.06-.215-.095-.315-.577-1.681-13.6-41.411,32.738-63.807a3.927,3.927,0,0,0,.553-.325c.973-.68,9.568-6.873,12-14.653A4,4,0,1,0,88.285,41.9c-1.323,4.233-6.522,8.714-8.711,10.313C52.314,65.5,43.788,84.685,41.44,98.462a59.775,59.775,0,0,0,1.58,27.077,58.216,58.216,0,0,0,5.509,12.667,13.158,13.158,0,0,1-2.282,13.722C45.938,152.247,45.632,152.573,45.33,152.911Z"/><path d="M100.77,56.74a3.984,3.984,0,0,0,1.427-.265c2.847-1.087,7.937-4.132,10.041-12.3a4,4,0,1,0-7.747-2c-1.147,4.448-3.434,6.164-5.151,6.82a4,4,0,0,0,1.43,7.737Z"/><path d="M129.909,54.028c-2-.608-4.118-1.143-6.109-1.595a13.516,13.516,0,0,1,2.307-.875,4,4,0,1,0-1.674-7.823,26.28,26.28,0,0,0-13.092,8.339,4,4,0,0,0,2.423,6.578,116.492,116.492,0,0,1,13.818,3.031c17.573,5.341,30.4,21.466,31.916,40.125q.041.505.076,1.019a55.2,55.2,0,0,1-9.138,34.16,4,4,0,1,0,6.655,4.439,63.228,63.228,0,0,0,10.464-39.138c-.025-.379-.053-.754-.084-1.128A53.293,53.293,0,0,0,129.909,54.028Z"/><path d="M119.39,167.565a3.975,3.975,0,0,0,.99-.125c.459-.116.915-.238,1.366-.363a4,4,0,0,0-2.141-7.708c-.4.109-.8.216-1.2.319a4,4,0,0,0,.985,7.877Z"/><path d="M100.257,169.464a4,4,0,0,0,.211-7.994,62.187,62.187,0,0,1-9.232-1.2,54.938,54.938,0,0,1-13.629-4.695,4,4,0,0,0-3.6,7.143A62.929,62.929,0,0,0,89.618,168.1a70.289,70.289,0,0,0,10.422,1.356C100.113,169.462,100.186,169.464,100.257,169.464Z"/><path d="M62.352,99.608a4,4,0,1,0,7.828,1.648,31.637,31.637,0,0,1,8.448-15.882c5.875-5.905,13.9-9.443,23.853-10.518,10.439-1.128,19.117.918,25.793,6.076a27.476,27.476,0,0,1,5.109,5.186,60.91,60.91,0,0,0-10.144.275,17.675,17.675,0,0,0-11.923,6.674,17.038,17.038,0,0,0-3.55,12.68,20.562,20.562,0,0,0,.451,2.358c-.849.28-1.7.586-2.568.945-1.209.5-2.35,1.02-3.451,1.55a16.042,16.042,0,0,0-5.986-9.741,17.184,17.184,0,0,0-19.433-.685A34.144,34.144,0,0,0,63.01,117.518v0a4.015,4.015,0,0,0-.2.768,3.887,3.887,0,0,0-.024.4,3.705,3.705,0,0,0-.02.38,3.98,3.98,0,0,0,.111.788h0A40.65,40.65,0,0,0,81.72,145.511a54,54,0,0,0,11.688,4.939,36.689,36.689,0,0,0,11.4,1.536,43.026,43.026,0,0,0,15.516-2.89,41.907,41.907,0,0,0,4.825-2.23,40.6,40.6,0,0,0,20.007-25.044,64.284,64.284,0,0,0,2.19-17.778A37.279,37.279,0,0,0,133.165,74.6c-8.365-6.465-18.981-9.059-31.542-7.7C89.8,68.178,80.157,72.5,72.957,79.731A39.619,39.619,0,0,0,62.352,99.608Zm38.1,21.075c.058-.034.112-.072.169-.109a53.273,53.273,0,0,1,8.089-4.135,26.935,26.935,0,0,1,7.6-1.96,18.11,18.11,0,0,1-1.121,3.67,9.032,9.032,0,0,1-10.948,4.929,19.156,19.156,0,0,1-4.394-2.006C100.049,120.942,100.251,120.812,100.454,120.683Zm-19.987,14.1a31.918,31.918,0,0,1-9.494-15.651,25.828,25.828,0,0,1,10.033-12.168,9.149,9.149,0,0,1,10.342.245c2.209,1.691,3.279,4.243,3.275,7.752C85.518,121.289,81.8,128.627,80.467,134.785Zm7.37,4.965a21.271,21.271,0,0,1,5.715-13.33,26.7,26.7,0,0,0,8.295,4.29,16.772,16.772,0,0,0,5.034.771,17.164,17.164,0,0,0,3.575-.382l2.106,4.379a4,4,0,1,0,7.21-3.467l-2.091-4.347a16.488,16.488,0,0,0,4.867-6.364,26.247,26.247,0,0,0,1.789-6.281,28.441,28.441,0,0,1,12.427,6.808C133.685,142,104.254,150.86,87.837,139.75Zm49.927-45.238a31.681,31.681,0,0,1,1.579,9.615,60.647,60.647,0,0,1-.561,8.988,35.253,35.253,0,0,0-17.236-6.6,4.005,4.005,0,0,0-.854-.1h0c-.071,0-.138.017-.208.021a31.95,31.95,0,0,0-4.42.053,12.152,12.152,0,0,1-.352-1.727,9.088,9.088,0,0,1,1.9-6.764,9.733,9.733,0,0,1,6.568-3.668A59.708,59.708,0,0,1,137.764,94.512Z"/><path d="M145.5,198.5c18.112-11.6,18.763-34.213,18.782-35.17a4,4,0,1,0-8-.157c0,.176-.466,16.462-12,26.291l-3.34-4.831a4,4,0,0,0-3.268-1.725h-.022A4,4,0,0,0,134.4,184.6c-.043.062-4.059,5.3-14.727,6.952l.366-1.394a4,4,0,0,0-3.772-5.015c-2.754-.066-10.824-1.023-15.042-4.6a4,4,0,0,0-5.177,6.1c4.408,3.742,10.711,5.335,15.066,6.01l-.62,2.361a4,4,0,0,0,3.869,5.015h.1c11.441-.3,18.6-4.019,22.55-7.014l3.042,4.4A4,4,0,0,0,145.5,198.5Z"/><path d="M112.406,212.185a4,4,0,0,0-4.7,3.156c-.13.665-3.078,16.411,6.823,27.962a4,4,0,0,0,6.074-5.206c-7.316-8.536-5.084-21.014-5.044-21.227A4,4,0,0,0,112.406,212.185Z"/><path d="M131.426,230.493a4,4,0,0,0-7.869,1.442c.069.381,1.76,9.4,6.783,15.259a4,4,0,0,0,6.075-5.206C132.827,237.8,131.448,230.611,131.426,230.493Z"/><circle cx="84.03" cy="113.115" r="4"/><circle cx="125.126" cy="100.563" r="4"/></svg>